<?xml version="1.0" encoding="UTF-8"?><svg id="a" xmlns="http://www.w3.org/2000/svg" width="720" height="720" viewBox="0 0 720 720"><defs><style>.c{fill:#fff;}</style></defs><path class="c" d="M533.42,317.51l-21.75,36.44-24.06-36.44h-37.01l46.09,62.51v37.45h29.38v-37.88l40.04-62.08h-32.69Z"/><path class="c" d="M227.41,317.51l-23.77,38.75-23.91-38.75h-29.24v99.96h27.08v-57.18l25.5,38.89h.58l25.5-39.18v57.47h27.51v-99.96h-29.25Z"/><path class="c" d="M428.13,195.36c0,.72-.58,1.15-1.15,1.15h-2.45v-2.16h2.45c.57,0,1.15,.44,1.15,1.01Z"/><g id="b"><path class="c" d="M516.71,165.12v.14c0,.14-.14,.14-.14,.29v-.43h.14Z"/></g><g><path class="c" d="M90.36,50.32V399.9c0,17.72,1.73,35,5.04,51.71,22.76,117.54,122.14,208.14,244,217.21,6.77,.58,13.69,.86,20.6,.86,7.06,0,13.97-.28,20.74-.86,121.71-9.22,221.1-99.67,243.86-217.21,3.31-16.71,5.04-33.99,5.04-51.71V50.32H90.36ZM615.24,399.9c0,17.72-1.88,35-5.19,51.71-24.05,116.09-127.04,203.67-250.05,203.67s-226-87.58-250.05-203.67c-3.32-16.71-5.19-33.99-5.19-51.71V64.72h510.48V399.9Z"/><path class="c" d="M600.83,283.37V79.12H119.17v204.25h182.21v168.24H124.78c24.06,109.9,122.58,189.27,235.22,189.27s211.31-79.51,235.36-189.27h-176.74v-168.24h182.21Zm-173.85-86.85h-2.45v-2.16h2.45c.58,0,1.15,.43,1.15,1.01,0,.71-.58,1.15-1.15,1.15Zm-16.85,318.75c0,37.16-39.9,73.17-49.98,87.72-8.5-12.39-50.13-50.13-50.13-87.72V178.94c-24.49,2.88-48.4,8.21-71.88,15.7v53.58c-31.69-28.52-83.83-57.76-94.2-136.4,0,0,93.91,1.01,215.92,1.01s216.2-1.01,216.2-1.01c-9.07,72.02-52.86,101.55-94.2,136.4v-53.58c-23.48-7.49-47.39-12.82-71.73-15.7v336.33h0Z"/></g><g><path class="c" d="M360,141.78v438.02c17.57-21.75,37.59-43.64,37.59-68.42V161.8c34.14,3.03,66.98,10.23,96.94,20.6,19.01-6.63,21.89-20.16,21.89-20.16,0,0-78.06-20.46-156.42-20.46Zm156.43,20.45s.14,1.01,.14,2.88v.43c0-.14,.14-.14,.14-.29,.29,7.2-1.15,27.08-22.18,52.72,8.36-6.91,16.13-13.83,23.19-20.89,1.3-1.15,2.45-2.3,3.46-3.6,4.9-4.9,9.22-9.79,12.96-14.98,1.3-1.44,2.31-2.88,3.46-4.32,1.59-2.16,3.03-4.03,4.18-6.19,1.01-1.3,1.87-2.74,2.59-4.18,.86-1.44,1.73-2.88,2.45-4.32,.86-1.44,1.73-3.03,2.45-4.75,1.15-2.3,2.31-4.75,3.31-7.35,.72-1.44,1.3-2.88,1.73-4.47,1.01-2.45,1.87-5.19,2.59-7.92,1.01-3.31,1.87-6.77,2.59-10.37-2.1602,2.75-19.4402,25.22-43.0602,37.6Zm-312.86,0s3.02,13.54,22.04,20.16c31.83-11.09,64.53-17.86,97.08-20.6,16.56-11.23,37.31-20.02,37.31-20.02-78.21,.15-156.43,20.46-156.43,20.46Zm-42.92-37.59c1.44,7.2,3.31,14.12,5.9,20.45,.87,2.3,1.73,4.32,2.74,6.48,.86,1.87,1.73,3.75,2.59,5.47,1.01,1.87,1.87,3.6,3.02,5.33,1.44,2.45,2.88,4.9,4.47,7.35,2.59,3.89,5.33,7.63,8.35,11.38,2.31,2.74,4.61,5.47,7.06,8.07,2.45,2.74,5.04,5.33,7.63,7.92,7.06,7.06,14.84,13.97,23.19,20.89-26.79-32.55-22.04-55.74-22.04-55.74-23.61-12.39-40.75-34.86-42.91-37.6Z"/><path class="c" d="M225.61,217.98c-8.36-6.91-16.13-13.83-23.19-20.89-2.59-2.59-5.18-5.19-7.63-7.92-2.45-2.59-4.75-5.33-7.06-8.07-3.03-3.75-5.76-7.49-8.35-11.38-1.59-2.45-3.03-4.9-4.47-7.35-1.15-1.73-2.02-3.46-3.02-5.33-.87-1.73-1.73-3.6-2.59-5.47-1.01-2.16-1.87-4.18-2.74-6.48-2.59-6.34-4.46-13.25-5.9-20.45,2.16,2.74,19.3,25.21,42.92,37.59-.01,0-4.76,23.19,22.03,55.75Z"/><path class="c" d="M559.49,124.64c-.72,3.6-1.58,7.06-2.59,10.37-.72,2.74-1.59,5.47-2.59,7.92-.43,1.59-1.01,3.03-1.73,4.47-1.01,2.59-2.16,5.04-3.31,7.35-.72,1.73-1.58,3.31-2.45,4.75-.72,1.44-1.59,2.88-2.45,4.32-.72,1.44-1.58,2.88-2.59,4.18-1.15,2.16-2.59,4.03-4.18,6.19-1.01,1.44-2.01,2.88-3.46,4.32-3.75,5.19-8.07,10.08-12.96,14.98-1.01,1.3-2.16,2.45-3.46,3.6-7.06,7.06-14.84,13.97-23.19,20.89,21.03-25.64,22.47-45.52,22.18-52.72l-.14-.14c0-1.87-.14-2.88-.14-2.88,23.6202-12.39,40.9002-34.86,43.0602-37.6Z"/><path class="c" d="M360,141.78s-20.74,8.79-37.31,20.02c-32.55,2.74-65.25,9.51-97.08,20.6-19.01-6.63-22.04-20.16-22.04-20.16,0,0,78.22-20.32,156.43-20.46Z"/><path class="c" d="M516.43,162.23s-2.88,13.54-21.89,20.16c-29.96-10.37-62.8-17.57-96.94-20.6V511.37c0,24.77-20.02,46.67-37.59,68.42V141.78c78.35,0,156.42,20.45,156.42,20.45Z"/></g></svg>